<?xml version="1.0" encoding="utf-8"?>
<!-- Generator: Adobe Illustrator 19.0.0, SVG Export Plug-In . SVG Version: 6.00 Build 0)  -->
<svg version="1.1" id="Layer_1" xmlns="http://www.w3.org/2000/svg" xmlns:xlink="http://www.w3.org/1999/xlink" x="0px" y="0px"
	 viewBox="0 0 375 100" style="enable-background:new 0 0 375 100;" xml:space="preserve">
<style type="text/css">
	.st0{fill:#FFFFFF;}
</style>
<path id="XMLID_41_" class="st0" d="M65.7,42.7c-9-9-14.3-15.6-18.9-28.5c-4.6,12.9-10,19.5-19.1,28.4c-5.9,5.9-9.1,13.2-9.1,20.1
	c0,15.3,12.5,27.8,28,27.9c15.5,0,28.1-12.4,28.1-27.7C74.7,56,71.6,48.6,65.7,42.7 M46.9,81l0,2.2c-11,0-19.9-8.9-19.8-19.8l3.5,0
	c0.5,9.3,6.9,15.7,16.3,16.3L46.9,81z"/>
<path id="XMLID_38_" class="st0" d="M70.7,100L22,99.9c-4.3,0-8.2-3.3-8.9-7.6L0.1,8.6c-0.3-2.2,0.3-4.4,1.7-6C3.2,0.9,5.3,0,7.5,0
	l78.7,0c2.3,0,4.4,1,5.8,2.6c1.4,1.6,2,3.8,1.6,6.1l-14,83.8C78.9,96.7,75,100,70.7,100z M86.2,7L7.5,7C7.3,7,7.1,7.1,7.1,7.1
	C7,7.2,7,7.4,7,7.5l13.1,83.7c0.1,0.8,1.1,1.6,2,1.6L70.7,93c0.9,0,1.9-0.8,2-1.6l14-83.8c0-0.2,0-0.3,0-0.4C86.6,7.1,86.4,7,86.2,7
	z"/>
<g id="XMLID_18_">
	<path id="XMLID_35_" class="st0" d="M111.1,71.3V26.4H130c14.1,0,24.3,8.5,24.3,22.4S144.1,71.3,130,71.3H111.1z M142.4,48.8
		c0-6.9-4.2-12.3-12.4-12.3h-7.3v24.7h7.3C137.8,61.2,142.4,55.4,142.4,48.8z"/>
	<path id="XMLID_33_" class="st0" d="M159.8,71.3V38.8h10.4v4c2.2-2.6,6.3-4.8,10.2-4.8v10c-0.6-0.1-1.5-0.3-2.6-0.3
		c-2.7,0-6.3,1.1-7.6,3v20.7H159.8z"/>
	<path id="XMLID_30_" class="st0" d="M182.9,55c0-9.2,6.7-17,17.7-17c11.2,0,17.8,7.9,17.8,17c0,9.2-6.6,17.1-17.8,17.1
		C189.5,72.1,182.9,64.1,182.9,55z M207.7,55c0-4.3-2.6-7.9-7.1-7.9c-4.5,0-7,3.6-7,7.9c0,4.4,2.5,7.9,7,7.9
		C205.1,62.9,207.7,59.3,207.7,55z"/>
	<path id="XMLID_27_" class="st0" d="M234.1,67.4v16.2h-10.4V38.8h10.4v3.8c2.6-3.1,5.9-4.6,9.6-4.6c8.1,0,14.3,6.1,14.3,17
		c0,11-6.1,17.1-14.3,17.1C240.1,72.1,236.8,70.7,234.1,67.4z M247.5,55c0-4.8-3.1-7.9-7.1-7.9c-2.2,0-4.9,1.2-6.2,3V60
		c1.3,1.7,4,3,6.2,3C244.4,62.9,247.5,59.9,247.5,55z"/>
	<path id="XMLID_24_" class="st0" d="M263.7,71.3V26.4h22.5c10.1,0,15.6,6.8,15.6,14.9c0,8.1-5.5,14.9-15.6,14.9h-10.9v15.1H263.7z
		 M290,41.3c0-3.1-2.3-4.8-5.4-4.8h-9.4v9.6h9.4C287.7,46.1,290,44.3,290,41.3z"/>
	<path id="XMLID_21_" class="st0" d="M303.3,55c0-9.4,7.1-17,17.3-17c9.6,0,16.6,7.1,16.6,18.1v2.2h-23.1c0.6,3,3.4,5.8,8.1,5.8
		c2.3,0,6.3-1,8.1-2.8l4.4,6.5c-3.2,2.9-8.6,4.3-13.6,4.3C311,72.1,303.3,65.5,303.3,55z M320.6,46c-4.5,0-6.3,3.2-6.7,5.6h13.4
		C327.1,49.3,325.4,46,320.6,46z"/>
	<path id="XMLID_19_" class="st0" d="M364.3,71.3V52.5c0-4-2.1-5.4-5.3-5.4c-3.1,0-5.1,1.7-6.3,3.2v21h-10.4V38.8h10.4v4
		c2-2.3,5.8-4.8,11.2-4.8c7.4,0,10.8,4.3,10.8,10.3v23H364.3z"/>
</g>
</svg>
